<?xml version="1.0" encoding="UTF-8" standalone="no"?>
<svg
   xmlns:dc="http://purl.org/dc/elements/1.1/"
   xmlns:cc="http://creativecommons.org/ns#"
   xmlns:rdf="http://www.w3.org/1999/02/22-rdf-syntax-ns#"
   xmlns:svg="http://www.w3.org/2000/svg"
   xmlns="http://www.w3.org/2000/svg"
   xmlns:sodipodi="http://sodipodi.sourceforge.net/DTD/sodipodi-0.dtd"
   xmlns:inkscape="http://www.inkscape.org/namespaces/inkscape"
   height="531.21368"
   width="523.74585"
   viewBox="0 0 418.99667 424.97094"
   id="svg2"
   version="1.1"
   inkscape:version="0.48.4 r9939"
   sodipodi:docname="fakeInitials.svg">
  <metadata
     id="metadata12">
    <rdf:RDF>
      <cc:Work
         rdf:about="">
        <dc:format>image/svg+xml</dc:format>
        <dc:type
           rdf:resource="http://purl.org/dc/dcmitype/StillImage" />
        <dc:title />
      </cc:Work>
    </rdf:RDF>
  </metadata>
  <defs
     id="defs10" />
  <sodipodi:namedview
     pagecolor="#ffffff"
     bordercolor="#666666"
     borderopacity="1"
     objecttolerance="10"
     gridtolerance="10"
     guidetolerance="10"
     inkscape:pageopacity="0"
     inkscape:pageshadow="2"
     inkscape:window-width="1920"
     inkscape:window-height="1027"
     id="namedview8"
     showgrid="false"
     inkscape:zoom="2.8427796"
     inkscape:cx="268.90033"
     inkscape:cy="274.50178"
     inkscape:window-x="0"
     inkscape:window-y="0"
     inkscape:window-maximized="1"
     inkscape:current-layer="svg2"
     fit-margin-top="0"
     fit-margin-left="0"
     fit-margin-right="0"
     fit-margin-bottom="0" />
  <path
     d="m 406.28682,0.03523229 c -12.53,0.473912 -14.38,3.60523301 -27.58,9.66512801 -26.47,12.1531637 -29.58,14.3141337 -53.69,31.0270337 -45.24,31.34658 -103.63,84.644956 -119.26,108.106916 -18.77,28.20943 -2.64,42.38506 5.52,51.42943 -2.29,4.8309 -26,18.68947 -12.53,15.59403 7.51,-1.73545 11.39,-8.90253 16.59,-12.88239 5.25,3.22894 27.55791,15.72594 35.55791,21.6999 -60.52,65.1712 -96.5983,52.16001 -112.4383,137.80619 -3.24,17.5047 -1.02,34.6089 3.8,47.76663 3.62,9.91209 15.05,15.10176 23.38,14.70127 19.39,-0.91779 28.98,-6.98352 42.08,-17.32114 50.4999,-34.99286 73.33444,-52.22143 82.24473,-77.85707 14.20744,-40.87595 20.64196,-67.20275 -24.95804,-104.08108 42.80304,-26.48869 12.43576,-44.82314 -15.19138,-37.13845 -11.02873,3.06773 47.14795,-10.20358 5.00299,30.4584 -5.56,-3.75458 -24.84791,-14.76643 -32.32791,-20.86554 36.47,-26.81606 72.03,-57.9624 103.97,-84.16104 35.82,-29.861436 80.11,-68.154006 91.33,-100.706225 3.67,-10.9158207 -1.25,-13.62996571 -11.5,-13.24199271 z m -0.25,8.38189501 c 17.02,3.2965227 -36.99,61.8212767 -45.12,68.3292167 -64.38,51.579606 -104.9,95.241226 -141.71,118.194236 -9.76,-6.21592 -16.6,-20.27474 -13.37,-29.65286 3.15,-9.13614 11.98,-21.26762 20.2,-30.00328 35.86,-38.113166 89.46,-82.732626 144,-115.390806 15.59,-6.353589 21.19,-10.5570517 36,-11.4765067 z M 258.06604,230.76121 c 11.72,6.0407 24.53078,22.59649 28.85078,65.90768 6.93132,58.92333 -58.70258,86.07901 -65.89068,95.08353 -8.36,8.64388 -22.14971,17.03139 -37.10971,25.74202 -6.06,3.52931 -20.55,5.52341 -24.43,3.07876 -11.31,-7.11702 -12.12,-10.31259 -14.17,-17.42961 -3.12,-10.83822 -1.99,-23.62049 -0.65,-33.7078 10.73,-80.82363 34.36737,-72.58807 99.7683,-129.33752 8.46636,-7.60457 9.68131,-9.13682 13.63131,-9.33706 z"
     id="path4"
     inkscape:connector-curvature="0"
     sodipodi:nodetypes="ccccccccccccscsccccccccccccccccccccc"
     style="fill:#164271" />
  <path
     d="m 210.82682,34.111674 c 32.08,-8.33767 16.14,16.62636 8.48,26.29956 -16.85,21.27334 -33.28,42.435716 -50.57,63.624206 -12.96,15.8881 -24.49,32.12216 -35.29,48.4933 -10.91,16.50822 -21.63,33.16005 -31.05,50.17741 -14.570001,26.31915 -29.370001,52.52081 -44.224001,78.72899 -10.664,18.81899 -19.305,38.16016 -30.031,56.97914 -7.271,12.76139 -11.317,26.45623 -21.2139996,38.48001 -16.385,2.06272 0.94,-17.79415 4.7009996,-23.36216 7.699,-11.39061 13.172,-23.46008 19.172,-35.34025 7.158,-14.16483 14.203,-28.47978 22.086,-42.30517 11.89,-20.8621 23.79,-41.71768 35.32,-62.67117 10.12,-18.40122 22.150001,-36.48258 33.880001,-54.55742 13.8,-21.25376 28.25,-42.56627 44.86,-63.57197 18.62,-23.557986 40.5,-45.986726 53.91,-71.294096 7.24,-13.66285 -26.96,0.70106 -35.89,3.91523 -16.22,5.84348 -32.84,11.45066 -48.24,18.33724 -32.98,14.73926 -64.240001,31.41066 -90.758001,51.215296 -12.457,9.30179 -14.979,30.60124 -19.429,15.54867 7.973,-18.08789 32.577,-33.088236 53.747,-44.883556 21.650001,-12.06294 44.590001,-23.21202 68.990001,-32.63131 20.07,-7.75018 39.18,-16.52192 61.55,-21.18195 z"
     id="path6"
     inkscape:connector-curvature="0"
     style="fill:#164271" />
</svg>
