<?xml version="1.0" encoding="UTF-8" standalone="no"?>
<svg
   xmlns:dc="http://purl.org/dc/elements/1.1/"
   xmlns:cc="http://creativecommons.org/ns#"
   xmlns:rdf="http://www.w3.org/1999/02/22-rdf-syntax-ns#"
   xmlns:svg="http://www.w3.org/2000/svg"
   xmlns="http://www.w3.org/2000/svg"
   xmlns:sodipodi="http://sodipodi.sourceforge.net/DTD/sodipodi-0.dtd"
   xmlns:inkscape="http://www.inkscape.org/namespaces/inkscape"
   height="636.67847"
   width="1287.4415"
   viewBox="0 0 1029.9532 509.34277"
   id="svg2"
   version="1.1"
   inkscape:version="0.48.4 r9939"
   sodipodi:docname="fakeSignature.svg">
  <metadata
     id="metadata12">
    <rdf:RDF>
      <cc:Work
         rdf:about="">
        <dc:format>image/svg+xml</dc:format>
        <dc:type
           rdf:resource="http://purl.org/dc/dcmitype/StillImage" />
      </cc:Work>
    </rdf:RDF>
  </metadata>
  <defs
     id="defs10" />
  <sodipodi:namedview
     pagecolor="#ffffff"
     bordercolor="#666666"
     borderopacity="1"
     objecttolerance="10"
     gridtolerance="10"
     guidetolerance="10"
     inkscape:pageopacity="0"
     inkscape:pageshadow="2"
     inkscape:window-width="1920"
     inkscape:window-height="1027"
     id="namedview8"
     showgrid="false"
     inkscape:zoom="1.0050744"
     inkscape:cx="284.91941"
     inkscape:cy="382.81993"
     inkscape:window-x="0"
     inkscape:window-y="0"
     inkscape:window-maximized="1"
     inkscape:current-layer="svg2"
     fit-margin-top="0"
     fit-margin-left="0"
     fit-margin-right="0"
     fit-margin-bottom="0" />
  <path
     d="m 406.28683,0.04222725 c -12.53,0.568 -14.38,4.32099995 -27.58,11.58399975 -26.47,14.566 -29.58,17.156 -53.69,37.187 -45.24,37.57 -103.63,101.450003 -119.26,129.570003 -18.77,33.81 -2.64,50.8 5.52,61.64 -2.29,5.79 -26,22.4 -12.53,18.69 7.51,-2.08 11.39,-10.67 16.59,-15.44 5.25,3.87 14.05,9.28 22.05,16.44 -60.52,78.11 -83.09039,72.08373 -98.93039,174.73373 -3.24,20.98 -1.02,41.48 3.8,57.25 3.62,11.88 15.05,18.1 23.38,17.62 19.39,-1.1 28.98,-8.37 42.08,-20.76 50.4999,-41.94019 73.33444,-62.58925 82.24473,-93.31447 14.20744,-48.99129 3.47566,-93.34926 -42.12434,-137.54926 5.59,-10.07 12.56,-14.32 19.2,-19.59 4.83,14.4 13.81,17.73 18.21,19.22 22.26,7.54 56.84,-3.5 80.12,-25.64 11.01,-10.46 12.72,-10.56 19.35,-18.26 -25.03,28.39 -40.83,88.66 8.17,74.11 14.83,-4.4 39.38,-26.8 48.02,-33.2 -0.9,5.83 -6.03,16.58 4.68,22.76 40.89,23.61 74.05,-41.32 74.82,-29.99 -28.65,43.86 -6.36,70.31 29.31,53.54 7.97,5.51 24.22,0.15 32.25,-5.24 21.43,-19.13 50.23,-50.65 81.77,-73.19 11.21,-11.41 24.22,-21.83 7.83,0.1 -24.54,32.82 -68.3,81.09 -46.43,86.95 21.27,5.7 71.95,-27.36 101.22,-46.7 18.65,-12.32 30.66,-23.68 15.6,5.02 -23.14,44.13 -15.96,97.31 65.83,77.29 54.69,-13.39 94,-35.6 136.23,-57.63 33.02,-17.22 74.61997,-63.85 80.91997,-81.71 2.4,-3.67 6.3,-16.78 4.6,-15.86 -1.6,1.28 -4.8,11.97 -5.3,12.65 -45.39997,69.77 -90.42997,88.06 -162.87997,118.76 -33.86,14.36 -93.84,27.57 -111.17,11.48 -19.42,-18.03 -10.1,-52.19 3.51,-75.42 4.59,-7.83 36.58,-32.46 16.55,-30.38 -9.16,0.96 -86.69,63.64 -116.43,69.44 -10.65,2.07 -37.37,15.62 -17.46,-12.68 46,-65.36 95.93,-121.73 153.56,-168.16 -0.17,-24.970003 -56.67,42.58 -80.3,60.25 -40.05,29.94 -72.28,61.38 -113.89,101.51 -12.31,11.87 -25.43,17.93 -30.21,14.08 12.11,-9.55 10.17,-11.29 -1.8,-3.51 -0.54,-3.89 1.35,-10.33 6.72,-19.81 13.85,-24.43 38.61,-59.6 56.65,-78.52 6.93,-7.27 13.68,-0.04 10.97,-10.15 -13.01,-10.68 -48.18,43.67 -77.1,89.87 -6.27,10.04 -8.1,16.95 -10.61,22.31 -18.44,13.02 -43.02,6.43 -30.67,-24.18 8.34,-20.66 10.78,-24.96 6.14,-25.98 -19.4,-4.27 -30.59,40.14 -67.42,30.27 -30.73,-8.24 14.4,-35.03 10.22,-42.69 -2.93,-5.38 -10.65,3.98 -16.95,10.11 -36.42,35.42 -91.35,60.05 -80.88,21.7 12.67,-46.36 37.57,-59.98 27.13,-66.01 -11.96,3.39 -38.73,45.11 -52.57,41.39 6.73,-10.17 17.44,-17.88 25.32,-28.34 20.52,-27.21 42.33,-42.39 40.69,-59.31 -2.07,-21.29 -21.22,-26.02 -42.28,-22.62 -23.06,3.73 -59.94,30.41 -74.73,46.6 -10.24,9.02 -23.63,38.55 -27.38,54.35 -11.66,10.66 -14.07,16.38 -25.66,26.24 -5.56,-4.5 -11.34,-8.13 -18.82,-15.44 36.47,-32.14 72.03,-69.47 103.97,-100.87 35.82,-35.79 80.11,-81.685003 91.33,-120.700003 3.67,-13.0829998 -1.25,-16.33599975 -11.5,-15.87099975 z m -0.25,10.04599975 c 17.02,3.951 -36.99,74.095 -45.12,81.895 -64.38,61.820003 -104.9,114.150003 -141.71,141.660003 -9.76,-7.45 -16.6,-24.3 -13.37,-35.54 3.15,-10.95 11.98,-25.49 20.2,-35.96 35.86,-45.68 89.46,-99.158003 144,-138.300003 15.59,-7.615 21.19,-12.653 36,-13.755 z m -25.26,120.820003 c 56.95,10.26 -10.79,63.7 -29.54,86.28 -14.34,17.28 -50.34,46.16 -34.98,-1.4 3.71,-11.47 -6.86,-13.4 -13.47,-11.72 -13.27,3.38 -29.63,20.16 -15.5,-5.05 19.06,-33.99 77.87,-70.93 93.49,-68.11 z m -72.67,80.48 c -3.29,14.57 -4.21,23.18 0.81,37.51 -11.04,0.82 -10.42,3.07 -25.8,-4.21 -18.74,-12.36 11.73,-34.31 24.99,-33.3 z m -65.8,53.79 c 11.72,7.24 40.29,38.48 44.61,90.39 6.93132,70.62171 -58.70258,103.16877 -65.89068,113.961 -8.36,10.36 -22.14971,20.41273 -37.10971,30.85273 -6.06,4.23 -20.55,6.62 -24.43,3.69 -11.31,-8.53 -12.12,-12.36 -14.17,-20.89 -3.12,-12.99 -1.99,-28.31 -0.65,-40.4 10.73,-96.87 30.99039,-85.87373 86.26039,-164.58373 7.2,-10.24 7.43,-12.78 11.38,-13.02 z"
     id="path4"
     inkscape:connector-curvature="0"
     sodipodi:nodetypes="ccccccccccccsccccccccccccccccccccccscccccccccccccccccccccccccccccccccccccccccccccccccccccccccc"
     style="fill:#164271" />
  <path
     d="m 210.82683,40.884051 c 32.08,-9.992985 16.14,19.927293 8.48,31.520966 -16.85,25.49686 -33.28,50.860723 -50.57,76.255883 -12.96,19.04245 -24.49,38.49955 -35.29,58.12094 -10.91,19.78569 -21.63,39.7435 -31.05,60.13942 -14.570003,31.54444 -29.370003,62.94806 -44.224003,94.3595 -10.664,22.55522 -19.305,45.73631 -30.031,68.29153 -7.271,15.29498 -11.317,31.70873 -21.2139998,46.11966 -16.385,2.47224 0.94,-21.32692 4.7009998,-28.00038 7.699,-13.65205 13.172,-28.11774 19.172,-42.35655 7.158,-16.97705 14.203,-34.13403 22.086,-50.70425 11.89,-25.00398 23.79,-50.00013 35.32,-75.11364 10.12,-22.05451 22.150003,-43.72567 33.880003,-65.389 13.8,-25.47339 28.25,-51.01719 44.86,-76.19328 18.62,-28.23509 40.5,-55.116723 53.91,-85.448516 7.24,-16.375414 -26.96,0.840246 -35.89,4.692549 -16.22,7.003617 -32.84,13.724024 -48.24,21.977834 -32.98,17.66552 -64.240003,37.646793 -90.758003,61.383363 -12.457,11.14852 -14.979,36.67667 -19.429,18.63563 7.973,-21.67898 32.577,-39.65743 53.747,-53.79454 21.650003,-14.457873 44.590003,-27.820443 68.990003,-39.10979 20.07,-9.288868 39.18,-19.802117 61.55,-25.387329 z"
     id="path6"
     inkscape:connector-curvature="0"
     style="fill:#164271" />
</svg>
