<?xml version="1.0" encoding="UTF-8"?>
<svg version="1.0" xmlns="http://www.w3.org/2000/svg" width="291" height="49">
<path fill="#231F20" d="M15.745,23.392c-4.728,7.169-9.742,14.352-13.667,22c-0.514,1.002,0.996,1.888,1.511,0.884 c3.925-7.648,8.939-14.832,13.667-22C17.879,23.33,16.363,22.455,15.745,23.392L15.745,23.392 M28.881,24.881c-2.247,1.87-4.335,3.992-5.962,6.427c-1.121,1.677-1.6,3.666-2.742,5.364 c-0.853,1.269-1.888,2.453-2.962,3.542c-0.792,0.804,0.444,2.042,1.237,1.237c2.179-2.21,4.177-4.778,5.225-7.72 c1.085-3.045,4.005-5.586,6.441-7.614C30.987,25.396,29.742,24.165,28.881,24.881L28.881,24.881 M3.268,33.677c7.837,1.188,16.915,3.34,24.798,2c1.111-0.189,0.639-1.875-0.465-1.688 c-7.517,1.278-16.412-0.87-23.869-2C2.629,31.822,2.155,33.509,3.268,33.677L3.268,33.677 M33.167,34.042c2.621,0.219,17.273,0.228,15.762-5.265c-0.566-2.057-3.834,0.423-4.496,0.926 c-2.859,2.171-4.72,5.443-3.777,9.029c1.028,3.915,5.009,4.063,8.097,2.774c2.332-0.973,4.288-2.867,6.026-4.632 c1.131-1.148,2.076-2.507,3.091-3.756c2.005,0.228,2.524,1.297,1.558,3.206c-0.192,0.998-0.449,1.979-0.771,2.943 c-0.493,1.658-0.126,3.989,2.205,3.344c4.39-1.216,8.404-5.113,11.258-8.493c-0.498-0.206-0.996-0.413-1.494-0.619 c-0.04,2.899,0.801,6.515,3.951,7.362c2.298,0.618,5.116-1.289,6.741-2.616c2.401-1.961,4.588-4.163,6.968-6.151 c1.812-1.515,1.856-1.928,1.348,0.102c-0.941,3.761-2.069,10.488,4.267,9.438c3.334-0.552,5.511-2.395,7.216-5.238 c-0.259,0.432-0.826-1.286-0.531,0.624c0.088,0.572,0.221,1.165,0.457,1.696c0.62,1.396,1.354,2.16,2.685,2.872 c0.995,0.532,1.878-0.979,0.883-1.511c-2.633-1.409-1.269-4.541-3.188-5.576c-0.252-0.136-0.636-0.188-0.883,0 c-1.736,1.315-2.349,3.386-4.36,4.623c-4.826,2.967-6.09-1.66-5.177-5.251c0.287-1.128,1.692-4.571-0.421-4.885 c-0.954-0.142-1.87,0.623-2.587,1.131c-3.165,2.242-5.68,5.267-8.828,7.54c-4.344,3.137-6.849,0.193-6.79-4.161 c0.01-0.721-0.99-1.216-1.494-0.619c-2.208,2.614-4.772,4.842-7.633,6.72c-4.476,2.939-1.987-3.026-1.812-5.645 c0.256-3.828-2.361-4.361-4.804-2.076c-3.57,3.34-5.768,8.24-11.33,8.756c-3.096-1.617-3.971-3.695-2.625-6.232 c0.4-0.772,0.902-1.475,1.505-2.108c0.832-0.961,1.889-1.7,2.99-2.314c0.134-1.365-0.36-1.17-1.483,0.585 c-0.811,0.474-1.668,0.828-2.574,1.06c-1.627,0.509-3.381,0.623-5.069,0.73c-1.617,0.103-3.265,0.069-4.879-0.066 C32.042,32.198,32.051,33.949,33.167,34.042L33.167,34.042 M112.935,16.011c3.796,1.317,7.892,1.969,11.899,2.031c1.129,0.018,1.127-1.732,0-1.75 c-3.859-0.06-7.778-0.701-11.435-1.969C112.33,13.952,111.875,15.643,112.935,16.011L112.935,16.011 M155.042,4.833c0.308-2.48-2.676,0.191-3.038,0.651c-7.897,10.022-13.901,21.915-20.26,32.907 c-0.571,0.989,0.882,1.805,1.512,0.884c3.176-4.653,6.593-9.167,10.302-13.407c1.736-1.985,4.563-5.774,7.4-6.095 c3.471-0.393-0.216,9.797-0.687,10.835c-0.972,2.141-2.241,4.154-3.527,6.117c-0.546,0.834,0.703,1.788,1.375,1.06 c4.924-5.332,9.981-10.688,15.579-15.32c0.629-0.521,2.896-2.527,2.666-1.587c-0.798,3.252-2.588,6.209-3.333,9.511 c-0.845,3.749,1.677,5.148,4.903,5.954c1.095,0.273,1.56-1.414,0.465-1.688c-8.041-2.01-0.119-9.483-0.168-14.59 c-0.024-2.55-3.224-0.728-4.148-0.087c-6.441,4.461-11.908,10.838-17.202,16.569c0.459,0.354,0.917,0.707,1.375,1.06 c3.168-4.834,7.294-11.423,5.281-17.417c-1.016-3.024-3.724-2.212-5.755-0.805c-6.561,4.549-11.587,12.485-16.038,19.005 c0.504,0.295,1.008,0.589,1.512,0.884c5.701-9.858,11.364-19.791,17.676-29.277c0.941-1.415,1.89-2.865,3.022-4.136 c0.964-1.082-0.823,0.27-0.662-1.029C153.153,5.952,154.905,5.938,155.042,4.833L155.042,4.833 M193.942,22.412c-5.139-2.512-14.949,1.73-16.47,7.258c-1.454,5.284,12.668-2.765,13.647-3.551 c-0.498-0.206-0.996-0.413-1.494-0.619c-0.808,20.645,26.628-2.7,22.827-5.952c-0.284,0.487-0.568,0.975-0.852,1.462 c7.522,1.239,15.325,1.131,22.798-0.333c1.107-0.217,0.638-1.904-0.465-1.688c-7.13,1.397-14.683,1.517-21.868,0.333 c-0.773-0.127-1.587,0.833-0.852,1.462c0.546,0.466-20.521,22.153-19.839,4.714c0.032-0.836-0.944-1.06-1.494-0.619 c-1.779,1.428-3.753,2.507-5.805,3.487c-0.992,0.473-6.15,2.97-3.836,0.301c2.716-3.132,8.443-6.885,12.818-4.747 C194.069,24.416,194.956,22.907,193.942,22.412L193.942,22.412 M221.745,3.726c-3.363,6.158-6.638,12.503-9.014,19.115c-0.563,1.564-2.241,5.565-0.127,6.727 c2.683,1.474,7.47-4.394,8.849-5.781c0.795-0.801-0.441-2.039-1.238-1.237c-1.59,1.601-3.202,3.208-5.03,4.54 c-0.709,0.517-1.784,1.494-1.804,0.407c-0.049-2.776,1.664-5.967,2.731-8.437c2.127-4.927,4.572-9.74,7.145-14.45 C223.798,3.618,222.286,2.735,221.745,3.726L221.745,3.726 M210.275,34.589c7.642-3.437,15.354-6.764,22.889-10.431c0.226-0.11,0.429-0.213,0.622-0.373 c0.361-0.299,0.724-0.597,1.087-0.895c1.515-1.244-1.486-0.487-0.463-1.709c-1.282,1.53-2.666,2.969-3.928,4.521 c-2.661,3.271-6.025,7.643-5.523,12.131c0.124,1.108,1.875,1.121,1.75,0c-0.725-6.479,6.025-11.097,9.268-15.835 c0.217-0.317,0.131-0.803-0.138-1.061c-0.005-0.005-0.011-0.011-0.017-0.016c-0.28-0.27-0.719-0.343-1.06-0.137 c-8.004,4.846-16.783,8.432-25.37,12.293C208.364,33.54,209.255,35.048,210.275,34.589L210.275,34.589 M242.257,10.275c0.803-1.21,1.523-2.479,2.16-3.784c0.675-1.384,1.574-3.248,0.84-4.766 c-0.491-1.016-2.001-0.128-1.512,0.883c0.505,1.043-0.955,3.264-1.419,4.135c-0.483,0.906-1.014,1.793-1.581,2.648 C240.119,10.335,241.636,11.21,242.257,10.275L242.257,10.275 M260.453,14.452c2.588-2.097,7.182-5.231,7.818-8.738c0.775-4.274-7.559-0.479-8.686,0.447 c-5.644,4.638-8.957,12.038-10.427,19.061c-0.483,2.311-0.757,4.945,0.164,7.177c1.78,4.314-5.033,10.682-9.156,11.226 c-1.103,0.146-1.116,1.897,0,1.75c4.288-0.565,8.547-4.776,10.543-8.368c1.028-1.851,0.866-3.703,0.091-5.581 c-1.066-2.585,0.075-6.199,0.771-8.719c1.75-6.332,5.91-15.151,12.827-17.031c4.384-1.191-0.274,3.117-1.423,4.23 c-1.197,1.16-2.466,2.258-3.762,3.308C258.338,13.925,259.584,15.156,260.453,14.452L260.453,14.452 M266.786,22.452c3.494-3.586,7.703-7.537,9.841-12.13c2.223-4.778-5.441-1.693-6.881-0.414 c-7.633,6.786-3.377,17.825-7.12,26.057c-0.791,1.74-2.172,3.147-3.817,4.082c-2.004,1.138-2.918,0.158-1.874-1.789 c2.829-5.274,9.859-9.259,14.687-12.505c4.807-3.233,10.601-5.755,14.213-10.479c0.521-0.682,0.07-1.697-0.819-1.625 c-1.59,0.127-3.303,1.914-4.476,2.853c-2.876,2.301-9.109,7.426-7.283,11.813c0.98,2.356,4.361,2.942,6.574,2.909 c3.254-0.049,6.197-2.719,8.117-5.081c0.227-0.279,0.44-0.57,0.643-0.867c0.635-0.938-0.883-1.812-1.512-0.884 c-2.067,3.054-5.398,5.542-9.271,4.957c-5.312-0.803-2.359-5.175-0.386-7.479c1.664-1.943,3.657-3.649,5.704-5.174 c0.608-0.453,1.241-0.873,1.905-1.238c-0.279-1.163-0.617-1.401-1.012-0.714c-0.47,0.531-1.02,1.007-1.536,1.489 c-4.307,4.023-9.798,6.572-14.577,9.97c-4.27,3.036-12.857,7.848-13.335,13.771c-0.262,3.245,4.149,2.136,5.67,1.272 c5.708-3.242,5.329-10.584,5.719-16.152c0.308-4.389,1.043-9.355,3.912-12.875c1.051-1.289,6.704-4.986,4.409-1.256 c-2.318,3.767-5.655,7.095-8.733,10.253C264.761,22.023,265.997,23.262,266.786,22.452L266.786,22.452z"/>
</svg>